<svg baseProfile="tiny" xmlns="http://www.w3.org/2000/svg" viewBox="0 0 70 70"><circle fill="#fff" cx="35" cy="35" r="35"/><path fill-rule="evenodd" fill="#253670" d="M35.002 67.008c17.624 0 31.998-14.377 31.998-32.004 0-17.628-14.373-32.006-31.998-32.006-17.624 0-32.002 14.378-32.002 32.006 0 17.626 14.378 32.004 32.002 32.004z"/><path fill="#fff" d="M13.034 12.46v-.705c-.245.232-.484.466-.725.705h.725z"/><path fill="#DC1E39" d="M13.034 11.755c1.219-1.15 2.528-2.207 3.911-3.154 0 1.283 0 2.574.002 3.859h18.037c.007 1.587.007 3.167-.007 4.753h-18.03l-.009 9.797h-3.905c-.006-3.264 0-6.535 0-9.797h-4.617c1.144-1.706 2.453-3.303 3.892-4.753h.725v-.705zm17.811-8.493c-4.094 2.516-8.212 4.961-12.29 7.503.92.037 1.85 0 2.773.019.233.018.467-.053.676-.194 4.122-2.546 8.279-5.032 12.398-7.592-1.205.018-2.389.11-3.557.263zm-19.422 15.657c-.942-.047-1.902-.012-2.85-.028-.268-.018-.511.143-.75.286l-.946.588c-.491.894-.936 1.814-1.34 2.758 1.969-1.186 3.934-2.381 5.887-3.603zm23.514 8.082l.054.01c-.007-.643.01-1.297-.014-1.935l-9.453-5.79c-.289-.162-.571-.404-.909-.394-.954.017-1.916-.018-2.868.028 4.379 2.749 8.81 5.348 13.19 8.082z"/><path fill="#fff" d="M20.615 36.109c.36-1.119.703-2.246 1.088-3.361.388 1.115.728 2.241 1.087 3.361 1.12-.399 2.208-.855 3.329-1.24-.641.996-1.302 1.967-1.953 2.947 1.001.629 2.04 1.195 3.038 1.825-1.178.126-2.345.208-3.526.324.151 1.178.333 2.355.488 3.534-.824-.855-1.625-1.737-2.463-2.572-.836.835-1.634 1.717-2.461 2.572.152-1.179.33-2.356.485-3.534-1.177-.116-2.346-.188-3.523-.324.998-.63 2.035-1.195 3.038-1.825-.651-.979-1.313-1.951-1.953-2.947 1.123.385 2.213.84 3.326 1.24zm-13.739-16.346l.946-.588c.239-.143.482-.304.75-.286.948.017 1.908-.018 2.85.028-1.953 1.222-3.917 2.417-5.887 3.603-.182.434-.36.875-.526 1.32 2.194-1.331 4.399-2.664 6.599-3.992l.007 7.16h1.418c-.006-3.264 0-6.535 0-9.797h-4.617c-.554.823-1.065 1.673-1.541 2.55zm43.019 1.688c-.08.546-.165 1.088-.227 1.645.402-.387.765-.802 1.164-1.2.397.398.753.813 1.164 1.19-.066-.547-.153-1.089-.229-1.635l1.657-.161c-.454-.312-.947-.577-1.409-.864l.905-1.408c-.528.183-1.036.418-1.575.581-.17-.522-.324-1.049-.512-1.573-.19.524-.342 1.051-.511 1.573-.54-.163-1.054-.398-1.582-.581.293.485.622.93.903 1.408-.461.287-.95.54-1.404.864l1.657.161zm2.107 24.184c.31-.449.627-.907.916-1.375-.528.18-1.049.394-1.566.575-.194-.477-.288-1.068-.521-1.475-.239.407-.332.998-.523 1.475l-1.57-.575c.293.467.595.926.918 1.375-.46.332-.974.575-1.442.887.561.056 1.118.102 1.666.146l-.214 1.655c.402-.377.765-.801 1.164-1.188.397.388.753.811 1.164 1.188-.066-.548-.161-1.099-.221-1.655.551-.044 1.111-.089 1.668-.146-.465-.312-.978-.555-1.441-.887zm9.857-16.614c-.466-.323-.978-.572-1.444-.88.314-.463.622-.93.922-1.39l-1.572.579c-.202-.504-.268-1.063-.55-1.524-.173.507-.333 1.019-.494 1.524l-1.572-.579c.291.471.594.928.919 1.383-.454.327-.973.565-1.436.888.558.059 1.11.095 1.663.14-.066.558-.16 1.096-.218 1.657.408-.379.778-.803 1.164-1.191l1.154 1.191c-.046-.553-.153-1.1-.206-1.657l1.668-.14zm-6.828 5.299c-.162-.284-.207-.683-.418-.9-.199.209-.266.616-.413.9l-1.033.077c.216.283.529.462.787.717-.096.338-.182.689-.257 1.031.308-.18.616-.369.916-.559.306.19.611.379.92.559-.076-.342-.16-.693-.255-1.031.255-.255.565-.434.781-.717l-1.029-.077zm-12.491-3.654c.291-.464.633-.905.905-1.387-.519.179-1.03.377-1.539.575l-.542-1.564c-.209.513-.328 1.051-.528 1.564-.521-.198-1.032-.396-1.551-.575.27.482.603.924.903 1.387-.47.3-.961.561-1.42.874.551.075 1.102.092 1.651.149-.067.56-.163 1.098-.207 1.657.398-.377.756-.804 1.152-1.191l1.152 1.191c-.046-.56-.138-1.098-.207-1.657.549-.056 1.1-.08 1.649-.149-.453-.313-.944-.573-1.419-.874zm-17.016-11.382l9.453 5.79.004-1.03c-2.804-1.724-5.636-3.375-8.422-5.139 2.8-.035 5.619 0 8.422-.017v-1.677h-18.034l-.009 9.797h1.333c0-2.386-.009-4.771.009-7.16 3.723 2.24 7.433 4.503 11.153 6.748.305.178.599.452.957.412 1.515-.01 3.031.01 4.547-.01-4.38-2.735-8.811-5.334-13.19-8.082.952-.047 1.914-.012 2.868-.028.338-.01.62.232.909.394zm9.457-8.511c-2.804-.017-5.622.028-8.422-.017 2.784-1.772 5.642-3.377 8.419-5.171l.004-.446v-2.147h-.103l-.477.006c-4.119 2.56-8.276 5.046-12.398 7.592-.209.141-.443.212-.676.194-.923-.019-1.853.018-2.773-.019 4.079-2.543 8.196-4.987 12.29-7.503h-.01c-.386.053-.764.109-1.152.169l-.101.02c-.391.071-.777.143-1.166.222-3.369 2.064-6.756 4.101-10.135 6.149-.004-.702-.004-1.394-.004-2.094l-.005.006c-.45.279-.891.565-1.326.868 0 1.283 0 2.574.002 3.859h18.034v-1.687z"/></svg>