<svg baseProfile="tiny" xmlns="http://www.w3.org/2000/svg" viewBox="0 0 70 70"><circle fill="#fff" cx="35" cy="35" r="35"/><g fill-rule="evenodd"><path fill="#fff" d="M24.13 65.106v-60.209c3.393-1.226 7.054-1.897 10.87-1.897 3.814 0 7.476.671 10.87 1.897v60.209c-3.395 1.225-7.056 1.894-10.87 1.894-3.816 0-7.478-.67-10.87-1.894z"/><path fill="#293987" d="M24.13 4.896v60.207c-12.319-4.45-21.13-16.25-21.13-30.103 0-13.852 8.81-25.653 21.13-30.104z"/><path fill="#ED2E3A" d="M45.87 65.103v-60.207c12.319 4.45 21.13 16.251 21.13 30.103 0 13.853-8.811 25.653-21.13 30.103z"/></g></svg>