<svg baseProfile="tiny" xmlns="http://www.w3.org/2000/svg" viewBox="0 0 70 70"><circle fill="#fff" cx="35" cy="35" r="35"/><path fill-rule="evenodd" fill="#fff" d="M34.998 2.998v32.001h-31.998c0 17.628 14.371 32.002 31.998 32.002 17.627 0 32.002-14.374 32.002-32.002 0-17.623-14.376-32.001-32.002-32.001z"/><path d="M6.097 48.714c.768 1.609 1.668 3.146 2.683 4.592h52.442c1.015-1.446 1.913-2.983 2.683-4.592h-57.808zm45.355-41.142c-4.812-2.902-10.442-4.574-16.454-4.574-6.006 0-11.636 1.672-16.45 4.574h32.904zm-48.127 22.854c-.215 1.497-.325 3.024-.325 4.574v.103c21.33-.022 42.67-.027 64 0v-.103c0-1.55-.112-3.077-.328-4.574-21.114 0-42.229.009-63.347 0zm48.105 32.015c2.147-1.289 4.134-2.83 5.918-4.573h-44.696c1.779 1.743 3.765 3.284 5.913 4.573h32.865zm-48.102-22.857c.229 1.581.571 3.127 1.025 4.628 20.427 0 40.854.004 61.284.018.454-1.506.804-3.06 1.034-4.65-21.114.005-42.229-.027-63.343.005zm9.315-27.446c-1.46 1.433-2.786 3.002-3.953 4.691 17.537-.022 35.084.009 52.625.004-1.172-1.689-2.498-3.262-3.962-4.696-14.905.005-29.805.005-44.71 0zm-6.546 9.153c-.715 1.501-1.317 3.065-1.797 4.686 20.467-.031 40.934-.044 61.398 0-.478-1.622-1.079-3.185-1.793-4.686h-57.808z" fill-rule="evenodd" fill="#CD2028"/><path fill-rule="evenodd" fill="#27245F" d="M34.998 2.998c-17.627 0-31.998 14.378-31.998 32.001h31.998v-32.001z"/><path d="M19.411 12.547c-4.317 0-7.822 3.493-7.822 7.796s3.504 7.796 7.822 7.796c1.56 0 3.013-.457 4.234-1.242-.711.245-1.474.38-2.268.38-3.828 0-6.935-3.097-6.935-6.912 0-3.816 3.107-6.912 6.935-6.912.846 0 1.656.151 2.406.428-1.248-.841-2.753-1.332-4.372-1.332zm12.971 11.854l-3.295-1.719.974 3.518-2.204-2.943-.688 3.582-.676-3.584-2.213 2.936.985-3.515-3.3 1.709 2.451-2.75-3.734.143 3.432-1.44-3.428-1.451 3.733.155-2.443-2.757 3.295 1.719-.974-3.518 2.204 2.943.687-3.582.676 3.584 2.213-2.936-.985 3.515 3.3-1.709-2.452 2.75 3.734-.143-3.432 1.44 3.428 1.451-3.733-.155z" fill="#FECD0C"/></svg>