<svg baseProfile="tiny" xmlns="http://www.w3.org/2000/svg" viewBox="0 0 70 70"><circle fill="#fff" cx="35" cy="35" r="35"/><path fill="#293476" d="M67 34.999c0 17.672-14.324 32-32.002 32-17.672 0-31.998-14.328-31.998-32 0-17.674 14.326-32 31.998-32 17.678 0 32.002 14.326 32.002 32z"/><path fill="#fff" d="M4.655 45.155c1.459.006 2.919.01 4.378.023-1.206.674-2.413 1.342-3.621 2.014.641 1.555 1.397 3.047 2.264 4.467 3.595-1.984 7.188-3.969 10.783-5.945.405-.205.798-.549 1.262-.549 2.228-.027 4.445.035 6.664-.041-5.601 3.107-11.207 6.193-16.816 9.289.344.449.699.889 1.066 1.318 5.506-3.037 11.007-6.08 16.514-9.113.009 4.045.004 8.105.009 12.158h-.005v7.25c1.009.254 2.036.461 3.081.617v-24.886h-26.511c.249 1.158.563 2.289.934 3.397zm61.623-3.396h-26.804v24.922c1.043-.146 2.069-.344 3.078-.588v-7.246h-.004c.004-4.076 0-8.154.008-12.229 5.574 3.07 11.148 6.148 16.715 9.223l.402-.465.134-.168c.593-.727 1.156-1.478 1.684-2.256l.086-.129c.232-.344.454-.693.672-1.047-4.012-2.211-8.017-4.414-12.032-6.625l6.586.014c.242-.014.477.051.683.176l6.365 3.518c.241-.502.468-1.012.684-1.527-1.286-.715-2.576-1.434-3.862-2.152 1.558-.01 3.115-.014 4.671-.018.371-1.109.685-2.242.935-3.402zm-.019-13.606c-1.862 0-3.722-.004-5.586-.02 1.623-.906 3.248-1.809 4.87-2.705-.506-1.619-1.143-3.178-1.887-4.674-4.134 2.289-8.27 4.57-12.407 6.85-.405.203-.796.549-1.261.549-2.233.021-4.445-.041-6.666.035 6.229-3.449 12.464-6.883 18.7-10.322-.301-.473-.613-.938-.938-1.393-6.174 3.412-12.351 6.816-18.527 10.221l-.008-15.543h.004v-7.248c-1.009-.244-2.035-.442-3.078-.586v28.238h27.338c-.124-1.154-.312-2.289-.555-3.402zm-39.107-24.181v7.18h.008l-.012 15.543c-6.108-3.363-12.21-6.738-18.314-10.106-.958 1.357-1.815 2.791-2.554 4.293 4.399 2.434 8.801 4.865 13.208 7.281l-6.586-.01c-.208.01-.413-.041-.612-.143-2.443-1.353-4.89-2.701-7.335-4.051-.193.527-.373 1.063-.539 1.602 1.542.852 3.08 1.713 4.619 2.572-1.767.016-3.529.02-5.294.02-.243 1.113-.431 2.248-.555 3.402h27.047v-28.203c-1.045.156-2.072.363-3.081.619z"/><path fill="#D0202D" d="M49.987 28.153c.465 0 .856-.346 1.261-.549 4.149-2.287 8.298-4.572 12.443-6.869-.495-.99-1.043-1.957-1.638-2.887-6.247 3.445-12.493 6.885-18.732 10.34 2.221-.076 4.433-.014 6.666-.035zm-37.086 0l6.586.01c-4.419-2.422-8.832-4.861-13.243-7.301-.495 1-.936 2.025-1.326 3.078 2.457 1.355 4.916 2.711 7.371 4.07.199.102.404.152.612.143zm6.82 17.012c-.464 0-.857.344-1.262.549-3.604 1.98-7.206 3.971-10.811 5.959.583.955 1.217 1.871 1.893 2.756 5.619-3.102 11.233-6.193 16.844-9.305-2.219.076-4.436.014-6.664.041zm37.082 0l-6.586-.014c4.024 2.215 8.038 4.424 12.059 6.639.58-.941 1.114-1.914 1.601-2.916-2.127-1.18-4.262-2.356-6.391-3.533-.206-.125-.44-.19-.683-.176z"/><path fill="#D1202D" d="M67 34.999c0-1.164-.065-2.313-.186-3.443h-27.339v-28.238c-1.464-.205-2.956-.318-4.477-.318-1.62 0-3.211.123-4.766.353v28.203h-27.046c-.121 1.131-.187 2.279-.187 3.443 0 2.32.253 4.58.722 6.76h26.511v24.886c1.555.232 3.146.355 4.766.355 1.52 0 3.013-.113 4.477-.318v-24.923h26.804c.469-2.18.722-4.439.722-6.76zm-4.978-17.133c-6.236 3.439-12.472 6.873-18.7 10.322 2.221-.076 4.433-.014 6.666-.035.465 0 .856-.346 1.261-.549 4.138-2.279 8.274-4.561 12.407-6.85-.495-.994-1.041-1.957-1.634-2.889zm-57.067 6.096c2.444 1.348 4.892 2.695 7.334 4.049.199.102.404.152.612.143l6.586.01c-4.407-2.416-8.808-4.848-13.208-7.281-.491 1-.936 2.025-1.324 3.08zm2.721 27.697c.582.953 1.217 1.869 1.892 2.754 5.609-3.096 11.215-6.182 16.816-9.289-2.219.076-4.436.014-6.664.041-.464 0-.857.344-1.262.549-3.595 1.977-7.188 3.961-10.783 5.945zm56.175-2.801l-6.365-3.518c-.206-.125-.44-.19-.683-.176l-6.586-.014c4.016 2.211 8.02 4.414 12.032 6.625.581-.941 1.118-1.914 1.602-2.918z"/></svg>