<svg baseProfile="tiny" xmlns="http://www.w3.org/2000/svg" viewBox="0 90 612 612" overflow="inherit"><circle fill="#fff" cx="306" cy="396" r="306"/><path fill="#EB2727" d="M192.4 651.6v-511.2c-3 1.4-6.1 2.8-9 4.2 37-18.2 78.7-28.4 122.6-28.4 154.1 0 279.8 125.7 279.8 279.8 0 154.1-125.7 279.8-279.8 279.8-43.9 0-85.6-10.2-122.6-28.399l9 4.199z"/><path fill="#186835" d="M192.4 651.2c-97.7-43.7-166.2-141.9-166.2-255.6 0-113.7 68.4-211.9 166.2-255.6v511.2z"/><path fill="#FCE12E" d="M281.5 437.6l-2-.199c-11.9-1.4-47.1-17.801-87-41-39.9-23.101-71.7-45.601-78.8-55.2l-1.1-1.6-8.5 14.7c-.5.8-.9.9.3 2.6 6.9 9.5 38.9 32 78.9 55.3 40.1 23.3 75.5 39.8 87.2 41 2.1.2 1.7-.4 2.4-1l8.6-14.601zm-169.7-99.2c-.8 1 0 2.2 1.3 3.9 7.2 9.6 38.9 32 78.8 55.101 39.9 23.1 75.2 39.5 87 41 2.2.3 3.5.399 4.1-.801.5-1.199-1.7-4.199-1.7-4.199.5 1.399 1.2 2.8-.9 2.6-11.6-1.3-47.1-17.8-87.2-41s-72-45.8-78.9-55.3c-1.3-1.7 0-1.8 1.6-2-2.5.099-3.3-.301-4.1.699m-9.9 16.9c-.7 1 .1 2.3 1.5 4.1 7.2 9.6 39 32 78.8 55.1 39.9 23.1 75.2 39.6 87 41 2.2.3 3.4.3 4.1-.8.2-1 .2-.601-.5-2.101 0 0 .1.801-2 .601-11.6-1.3-47.1-17.8-87.2-41s-72-45.8-78.9-55.3c-1.2-1.7-.8-1.4-.7-2.2-.9.1-1.1-.2-2.1.6m10.1 93.4c9.2 4.5 41.7 7.8 80.4 7.8 38.6 0 71-3.3 80.3-7.8l4.9-8.4c-9.4 4.8-44 8.3-85.3 8.3s-75.9-3.5-85.3-8.3l5 8.4zm162.1-2.1c-1 .801-1.4 1-2.4 1.4-10.9 4.2-42.3 7.2-79.3 7.2s-68.4-3-79.3-7.2c-1-.4-1.6-.8-2.4-1.4l-.3.9c0 5.7 36.7 10.2 82 10.2s82-4.601 82-10.2l-.3-.9m-167.2-9c-.3 1 .5 1.801 1.4 2.2 11 4.5 44.6 7.7 84.2 7.7 38.6 0 75-4 84.2-7.8.9-.4 1.7-.9 1.4-2 .9.399 1 1.5 1 1.5 0 6-38.8 10.8-86.7 10.8-47.8 0-86.6-4.9-86.6-10.8 0 .1-.1-1 1.1-1.6m181.9-45l-1.8 1.3c-10.8 7.2-49.1 12.4-94.6 12.4s-83.7-5.3-94.6-12.4l-1.7-1.2v6.2c0 1.399-.3 1.899 1.5 3.199 10.6 7.2 49 12.5 94.8 12.5s84.2-5.3 94.7-12.5c1.9-1.3 1.3-1.8 1.5-3.199l.2-6.3zm-1.5-3.6c1.1 1.5 1.8 3.1-.1 4.4-10.6 7.2-49 12.5-94.8 12.5s-84.1-5.301-94.7-12.5c-1.9-1.3-1.2-3-.1-4.5 0 0-2.9 1.8-2.8 3.2-.2 1.9 1 2.8 3.1 4.1 10.9 7.2 49.1 12.399 94.6 12.399s83.7-5.199 94.6-12.399c2-1.3 3.2-2.2 3.1-4.1-.3-1.9-3-3.1-2.9-3.1m1.4 9.4c-.2-.101.3 2-1.6 3.3-10.6 7.2-49 12.5-94.8 12.5s-84.1-5.3-94.7-12.5c-1.9-1.3-1.7-1.8-1.6-3.3 0 0-1 .699-1.3 2.1-.1 1.8 1 2.8 3.1 4.1 10.9 7.101 49.1 12.4 94.6 12.4s83.7-5.2 94.6-12.4c2-1.3 3-2.199 3.1-4.1-.2-1.2-.9-1.7-1.4-2.1m-10.5-45.7c-2.3 5.7-39.8 10.2-85.8 10.2-45.3 0-82.4-4.4-85.6-9.9l4.6-8.5c2.8 5.3 38 9.5 81 9.5s78.2-4.2 81-9.5l4.8 8.2zm-4.1-8.9c-1 .8-1.4 1-2.4 1.4-10.9 4.2-42.3 7.2-79.3 7.2s-68.4-3-79.3-7.2c-1-.4-1.6-.8-2.4-1.4l-.3.9c0 5.6 36.7 10.2 82 10.2s82-4.6 82-10.2l-.3-.9m-167.2 7.6c-.3 1 .5 1.8 1.4 2.2 11 4.5 44.6 7.8 84.2 7.8 38.6 0 75-4 84.2-7.8.9-.4 1.7-.9 1.4-2 .9.4 1 1.5 1 1.5 0 6-38.8 10.8-86.7 10.8-47.8 0-86.6-4.9-86.6-10.8 0 .1-.1-1 1.1-1.7m85.5-38.7c-46.3 0-83.9 37.6-83.9 83.899 0 46.301 37.6 83.9 83.9 83.9 46.3 0 83.9-37.6 83.9-83.9 0-46.299-37.5-83.899-83.9-83.899m94.9 83.9c0 52.4-42.5 94.9-94.9 94.9s-94.9-42.5-94.9-94.9c0-52.399 42.5-94.899 94.9-94.899 52.4-.101 94.9 42.399 94.9 94.899m-191.2 4.1l1.8-1.3c10.8-7.2 49.1-12.4 94.6-12.4s83.7 5.3 94.6 12.4l1.8 1.199v-6.2c0-1.4.4-1.9-1.5-3.2-10.6-7.2-49-12.5-94.7-12.5-45.8 0-84.2 5.3-94.8 12.5-1.9 1.3-1.2 1.8-1.5 3.2l-.3 6.301zm1.5 3.5c-1.1-1.5-1.8-3.101.1-4.4 10.6-7.2 49-12.6 94.7-12.6s84.1 5.3 94.7 12.5c1.9 1.3 1.2 3 .1 4.5 0 0 2.9-1.8 2.8-3.2.2-1.9-1.1-2.8-3.1-4.2-10.8-7.1-49.1-12.4-94.6-12.4s-83.7 5.3-94.6 12.4c-2 1.3-3.2 2.2-3.1 4.2.3 2.1 3 3.2 3 3.2m-1.5-9.3c.2.1-.4-2 1.5-3.3 10.6-7.2 49-12.5 94.7-12.5s84.1 5.3 94.7 12.5c1.9 1.3 1.7 1.8 1.6 3.3 0 0 1-.7 1.3-2.1.1-1.9-1.1-2.8-3.1-4.2-10.8-7.1-49.1-12.4-94.6-12.4s-83.7 5.3-94.6 12.4c-2 1.3-3.1 2.1-3.1 4.1.4 1.3 1.1 1.8 1.6 2.2m92.2-94.6h8.2v192.6h-8.2v-192.6zm1.4 192.5c0 .8-.6 1.4-1.4 1.4-.7 0-1.4-.601-1.4-1.4v-192.5c0-.8.6-1.4 1.4-1.4.8 0 1.4.6 1.4 1.4v192.5zm8.2 0c0 .8-.6 1.4-1.4 1.4-.8 0-1.4-.601-1.4-1.4v-192.5c0-.8.6-1.4 1.4-1.4.8 0 1.4.6 1.4 1.4v192.5zm-91.3-53.2c2.3-5.699 39.8-10.199 85.8-10.199 45.3 0 82.4 4.399 85.6 10l-4.6 8.5c-2.8-5.301-38-9.5-81.1-9.5-43 0-78.2 4.199-81 9.5l-4.7-8.301zm7.4 10.9c-2.6-2.1-1.9-3.1-.9-3.5 10.9-4.2 42.3-7.2 79.2-7.2 37 0 68.4 3 79.3 7.2 1 .4 1.5 1.5-.8 3.4 3.6-1.4 3.4-2.9 3.4-2.9 0-5.7-36.7-10.3-82-10.3s-82 4.6-82 10.3c.2 0-.1 1.5 3.8 3m163-9c1.2-1.3.5-2.5-.4-2.9-11-4.5-44.5-7.8-84.2-7.8-38.6 0-75 4-84.2 7.8-1 .4-1.8 1.301-.8 2.9-2.1-1.4-1.7-2.4-1.7-2.4 0-6 38.8-10.8 86.7-10.8s86.7 4.9 86.7 10.8c0 0-.1 1.7-2.1 2.4m-4.2-98c-9.2-4.5-41.7-7.8-80.4-7.8-38.6 0-71 3.3-80.3 7.7l-4.9 8.4c9.4-4.8 44-8.3 85.3-8.3s75.9 3.5 85.3 8.4l-5-8.4zm-162.1 2.2c1-.8 1.4-1 2.4-1.4 10.9-4.2 42.3-7.2 79.3-7.2s68.4 3 79.3 7.2c1 .4 1.6.7 2.4 1.4l.3-1c0-5.6-36.7-10.2-82-10.2s-82 4.6-82 10.2l.3 1m167.3 9c.3-1-.5-1.8-1.4-2.2-11-4.5-44.5-7.8-84.2-7.8-38.6 0-75 4-84.2 7.8-1 .4-1.7.9-1.5 2-.9-.4-1-1.5-1-1.5 0-6 38.8-10.8 86.7-10.8s86.7 4.9 86.7 10.8c0 0 .1 1-1.1 1.7m-174.7.8l2 .2c11.8 1.4 47.1 17.8 87 41 39.9 23.1 71.6 45.6 78.8 55.2l1.1 1.6 8.4-14.7c.5-.8.9-.899-.3-2.6-6.9-9.5-38.9-32.101-78.9-55.3-40.1-23.3-75.5-39.8-87.2-41-2.1-.2-1.7.4-2.4 1.1l-8.5 14.5zm169.8 99.2c.8-1 0-2.2-1.3-3.9-7.2-9.6-39-32-78.8-55.2-39.9-23.1-75.2-39.6-87-41-2.2-.3-3.5-.4-4.1.8-.5 1.2 1.7 4.2 1.7 4.2-.5-1.4-1.2-2.9.8-2.6 11.6 1.2 47.1 17.7 87.2 41s72 45.8 79 55.3c1.2 1.7 0 1.8-1.6 2 2.4 0 3.2.4 4.1-.6m9.8-16.9c.7-.899-.1-2.3-1.5-4.1-7.2-9.601-39-32-78.8-55.2-39.9-23.1-75.1-39.6-87-41-2.2-.3-3.4-.3-4 .8-.2 1-.2.6.5 2.2 0 0 0-.8 2-.6 11.6 1.3 47.1 17.8 87.2 41s72 45.8 79 55.3c1.2 1.7.8 1.399.7 2.2.7-.1 1 .2 1.9-.6"/><path fill="#fff" d="M134.9 407.1c0 31.7 26 57.4 57.7 57.4 31.7 0 57.3-25.7 57.3-57.4v-74.3h-115v74.3zm57.7 57.7c-32 0-58-25.899-58-57.8v-74.6h115.7v74.6c0 31.9-25.9 57.8-57.7 57.8zm-57.3-131.6v73.9c0 31.5 25.7 57 57.3 57 31.4 0 57-25.6 57-57v-73.9h-114.3z"/><path fill="#EB2727" d="M136.3 406.9c0 30.899 25.3 56 56.3 56 30.9 0 55.9-25.101 55.9-56v-72.5h-112.2v72.5z"/><path fill="#FCE12E" d="M226.6 423.8l.7.7-.8.8.7.7.9-.8.7.6-.8.9.6.7.8-.801.7.7-.8.9-.3-.3-.4.399-2.7-2.7.4-.399-.4-.4.7-.999zm5.2 1.5l-.9.9.3.3-.5.4 2.7 2.699.4-.399.3.3.9-.9-.7-.699-.9.899-.7-.7.9-.899-.7-.601-.9.9-.7-.7.9-.899-.4-.601zm1.6 5.2l-.9.9.4.3-.5.399 2.7 2.7.4-.399.3.3.9-.9-.7-.7-.9.9-.7-.7.9-.899-.7-.601-.9.8-.7-.7.8-.9-.4-.5zm-11.2-1.6l.4-.4 9.4 9.4-.4.399-9.4-9.399zm-1 1l.4-.4 9.6 9.2-.4.399-9.6-9.199zm5.4 14c.6-.801 1.1-1.7 1.5-2.601l1-1 .3.3.9-.899-9.4-9.5-.9.9.3.301-1 1c-.9.3-1.8.8-2.6 1.5l1.6 1.6c2.3-1.7 5.2-1.8 6.8-.2 1.7 1.601 1.5 4.5-.2 6.8l1.7 1.799zm-3.8-2.8c1.2-1.199 1.5-3 .5-3.899-1-.9-2.7-.7-3.9.5l3.4 3.399zm3.9 3.8l-1.1 1.6-11.6-11.7 1.6-1 2.9 2.9c1.9-1.9 4.7-2.3 6.2-.8s1.1 4.3-.8 6.199l2.8 2.801zm-4.1-5c.7-.7.8-1.7.3-2.2-.5-.601-1.5-.4-2.2.3l1.9 1.9zm3.2-12.3l-1 1 .5.4.9-1-.4-.4zm1.8.6l-2.2 2.2-2-2 2.2-2.2 2 2zm4.9 6.1l-1 1 .5.5 1-1-.5-.5zm1.9.7l-2.2 2.2-2-2 2.2-2.2 2 2zm-4.2-5.2l-1.6 1.601.5.5 1.5-1.601-.4-.5zm2.5 0l-3.9 3.9-2-2 3.9-3.9 2 2zm-84.4 4.1l.7-.7.8.899.7-.699-.9-.9.7-.6.8.8.7-.7-.9-.9.7-.699.8.899-.3.3.4.4-2.7 2.7-.4-.4-.3.4-.8-.8zm1.6-5.1l.9.9.3-.3.5.399 2.7-2.7-.4-.399.3-.3-.9-.9-.7.7.9.899-.7.7-.9-.899-.7.6.9.9-.7.699-.9-.899-.6.6zm5.1-1.6l.9.899.3-.3.4.4 2.7-2.7-.4-.4.3-.3-.8-.899-.7.699.9.9-.7.7-.9-.8-.6.6.9.9-.7.699-.8-.8-.8.402zm-1.5 11.2l-.4-.4 9.3-9.6.4.399-9.3 9.601zm.7.7l-.4-.399 9.6-9.3.4.399-9.6 9.3zm14.2-5.2c-.9-.601-1.7-1.101-2.6-1.5l-1.1-1 .4-.4-.9-.9-9.5 9.5.9.9.3-.3 1 1.1c.4.9.8 1.8 1.4 2.601l1.7-1.601c-1.7-2.3-1.8-5.2-.2-6.8 1.6-1.6 4.5-1.5 6.8.2l1.8-1.8zm-2.8 3.8c-1.2-1.2-3-1.4-3.9-.5-.9.899-.7 2.7.5 3.899l3.4-3.399zm3.8-3.9l1.6 1-11.7 11.7-1-1.6 2.9-2.9c-1.9-1.9-2.3-4.7-.8-6.2s4.2-1.1 6.2.8l2.8-2.8zm-5 4.1c-.7-.7-1.7-.801-2.2-.301s-.4 1.5.3 2.2l1.9-1.899zm-12.3-3.1l1 1 .4-.5-.9-1-.5.5zm.6-1.8l2.2 2.2-2 2-2.2-2.2 2-2zm6.1-5l1 1 .5-.5-1-1-.5.5zm.7-1.8l2.2 2.2-2 2-2.2-2.2 2-2zm-5.2 4.1l1.6 1.601.5-.5-1.6-1.601-.5.5zm0-2.5l3.9 3.9-2 2-3.9-3.9 2-2zm-12.9-45.6h1v1.2h1v-1.2h.9v1.2h.9v-1.2h1v1.2h-.4v.6h-3.8v-.6h-.5l-.1-1.2zm4.7-2.6v1.3h.5v.6h3.9v-.6h.5v-1.3h-1v1.3h-1v-1.3h-.9v1.3h-1v-1.3h-1zm4.8 2.6v1.2h.5v.6h3.8v-.6h.5v-1.2h-1v1.2h-1v-1.2h-.9v1.2h-1v-1.2h-.9zm-9 6.2h13.4v.6h-13.4v-.6zm0 1.2h13.4v.6h-13.4v-.6zm13.7 6.8c-.2-1-.4-2-.8-2.9v-1.5h.5v-1.2h-13.4v1.2h.5v1.5c-.4.9-.7 1.8-.8 2.9h2.3c.5-2.8 2.4-4.9 4.7-4.9 2.3 0 4.2 2.1 4.7 4.9h2.3zm-4.7.7c0-1.7-1.1-3.1-2.4-3.1-1.4 0-2.4 1.4-2.4 3.1h4.8zm5.5-.1l.4 1.9h-16.5l.4-1.9h4.1c0-2.7 1.7-4.9 3.8-4.9s3.8 2.2 3.8 4.9h4zm-6.5-.6c0-1-.6-1.8-1.4-1.8s-1.4.8-1.4 1.8h2.8zm-6.5-9.6h.7v-1.4h-.7v1.4zm0-1.4l1.7 2.2h-2.8v-3.1h2.8v3.1l-1.7-2.2zm9.6 1.4h.7v-1.4h-.7v1.4zm0-1.4l1.8 2.2h-2.8v-3.1h2.8v3.1l-1.8-2.2zm-4.8.7h.7v-2.2h-.7v2.2zm0-2.2l1.8 3.8h-2.9v-5.5h2.9v5.5l-1.8-3.8zm80.8-1.7h1v1.2h.9v-1.2h.9v1.2h.9v-1.2h1v1.2h-.4v.6h-3.8v-.6h-.5v-1.2zm4.8-2.6v1.3h.5v.6h3.9v-.6h.5v-1.3h-1v1.3h-.9v-1.3h-.9v1.3h-1v-1.3h-1.1zm4.8 2.6v1.2h.5v.6h3.8v-.6h.5v-1.2h-.9v1.2h-1v-1.2h-.9v1.2h-.9v-1.2h-1.1zm-9.1 6.2h13.4v.6h-13.4v-.6zm0 1.2h13.4v.6h-13.4v-.6zm13.7 6.8c-.1-1-.4-2-.8-2.9v-1.5h.5v-1.2h-13.4v1.2h.5v1.5c-.4.9-.7 1.8-.8 2.9h2.3c.4-2.8 2.4-4.9 4.7-4.9 2.3 0 4.2 2.1 4.7 4.9h2.3zm-4.6.7c0-1.7-1.1-3.1-2.4-3.1-1.3 0-2.4 1.4-2.4 3.1h4.8zm5.4-.1l.4 1.9h-16.5l.4-1.9h4.1c0-2.7 1.7-4.9 3.8-4.9 2.1 0 3.8 2.2 3.8 4.9h4zm-6.5-.6c0-1-.6-1.8-1.4-1.8-.8 0-1.4.8-1.4 1.8h2.8zm-6.4-9.6h.6v-1.4h-.6v1.4zm0-1.4l1.7 2.2h-2.8v-3.1h2.8v3.1l-1.7-2.2zm9.5 1.4h.6v-1.4h-.6v1.4zm0-1.4l1.8 2.2h-2.9v-3.1h2.9v3.1l-1.8-2.2zm-4.8.7h.7v-2.2h-.7v2.2zm0-2.2l1.8 3.8h-2.9v-5.5h2.9v5.5l-1.8-3.8zm-6.8-43.1h1v1.2h.9v-1.2h.9v1.2h.9v-1.2h1v1.2h-.4v.6h-3.8v-.6h-.5v-1.2zm4.8-2.5v1.3h.5v.6h3.9v-.6h.5v-1.3h-1v1.3h-.9v-1.3h-.9v1.3h-1v-1.3h-1.1zm4.8 2.5v1.2h.5v.6h3.8v-.6h.5v-1.2h-.9v1.2h-1v-1.2h-.9v1.2h-.9v-1.2h-1.1zm-9.1 6.2h13.4v.6h-13.4v-.6zm0 1.2h13.4v.6h-13.4v-.6zm13.7 6.9c-.1-1-.4-2-.8-2.9v-1.5h.5v-1.3h-13.4v1.3h.5v1.5c-.4.9-.7 1.8-.8 2.9h2.3c.4-2.8 2.4-5 4.7-5 2.3 0 4.2 2.1 4.7 5h2.3zm-4.6.6c0-1.7-1.1-3.1-2.4-3.1-1.3 0-2.4 1.4-2.4 3.1h4.8zm5.4 0l.4 1.8h-16.5l.4-1.8h4.1c0-2.7 1.7-4.9 3.8-4.9 2.1 0 3.8 2.2 3.8 4.9h4zm-6.5-.7c0-1-.6-1.8-1.4-1.8-.8 0-1.4.8-1.4 1.8h2.8zm-6.4-9.5h.6v-1.4h-.6v1.4zm0-1.4l1.7 2.2h-2.8v-3h2.8v3l-1.7-2.2zm9.5 1.4h.6v-1.4h-.6v1.4zm0-1.4l1.8 2.2h-2.9v-3h2.9v3l-1.8-2.2zm-4.8.6h.7v-2.2h-.7v2.2zm0-2.2l1.8 3.8h-2.9v-5.5h2.9v5.5l-1.8-3.8zm-94.4-1.7h1v1.2h1v-1.2h.9v1.2h.9v-1.2h1v1.2h-.5v.6h-3.8v-.6h-.5v-1.2zm4.7-2.5v1.3h.5v.6h3.8v-.6h.5v-1.3h-1v1.3h-.9v-1.3h-.9v1.3h-1v-1.3h-1zm4.8 2.5v1.2h.5v.6h3.8v-.6h.5v-1.2h-1v1.2h-1v-1.2h-.9v1.2h-1v-1.2h-.9zm-9 6.2h13.4v.6h-13.4v-.6zm0 1.2h13.4v.6h-13.4v-.6zm13.7 6.9c-.2-1-.4-2-.8-2.9v-1.5h.5v-1.3h-13.4v1.3h.5v1.5c-.4.9-.7 1.8-.8 2.9h2.3c.5-2.8 2.4-5 4.7-5 2.3 0 4.2 2.1 4.7 5h2.3zm-4.7.6c0-1.7-1.1-3.1-2.4-3.1s-2.4 1.4-2.4 3.1h4.8zm5.5 0l.4 1.8h-16.5l.4-1.8h4.1c0-2.7 1.7-4.9 3.8-4.9s3.8 2.2 3.8 4.9h4zm-6.5-.7c0-1-.6-1.8-1.4-1.8s-1.4.8-1.4 1.8h2.8zm-6.5-9.5h.7v-1.4h-.7v1.4zm0-1.4l1.7 2.2h-2.8v-3h2.8v3l-1.7-2.2zm9.6 1.4h.7v-1.4h-.7v1.4zm0-1.4l1.8 2.2h-2.8v-3h2.8v3l-1.8-2.2zm-4.8.6h.7v-2.2h-.7v2.2zm0-2.2l1.8 3.8h-2.8v-5.5h2.8v5.5l-1.8-3.8zm37.1-1.7h1v1.2h1v-1.2h.9v1.2h1v-1.2h.9v1.2h-.4v.6h-3.8v-.6h-.5l-.1-1.2zm4.7-2.6v1.3h.5v.6h3.8v-.6h.5v-1.3h-1v1.3h-1v-1.3h-.9v1.3h-1v-1.3h-.9zm4.8 2.6v1.2h.5v.6h3.8v-.6h.5v-1.2h-.9v1.2h-1v-1.2h-.9v1.2h-.9v-1.2h-1.1zm-9.1 6.2h13.4v.6h-13.4v-.6zm0 1.2h13.4v.6h-13.4v-.6zm13.8 6.8c-.1-1-.4-2-.8-2.9v-1.5h.5v-1.2h-13.4v1.2h.5v1.5c-.4.9-.7 1.8-.8 2.9h2.3c.5-2.8 2.4-4.9 4.7-4.9s4.2 2.1 4.7 4.9h2.3zm-4.7.7c0-1.7-1.1-3.1-2.4-3.1-1.3 0-2.4 1.4-2.4 3.1h4.8zm5.5 0l.4 1.8h-16.5l.4-1.8h4.1c0-2.7 1.7-5 3.8-5s3.8 2.2 3.8 5h4zm-6.5-.7c0-1-.6-1.8-1.4-1.8-.8 0-1.4.8-1.4 1.8h2.8zm-6.5-9.6h.7v-1.4h-.7v1.4zm0-1.3l1.7 2.2h-2.8v-3.1h2.8v3.1l-1.7-2.2zm9.6 1.3h.7v-1.4h-.7v1.4zm0-1.3l1.8 2.2h-2.9v-3.1h2.9v3.1l-1.8-2.2zm-4.8.6h.7v-2.2h-.7v2.2zm0-2.2l1.8 3.8h-2.9v-5.5h2.9v5.5l-1.8-3.8z"/><path fill="#fff" d="M159.4 405.2c0 19.2 14.9 34.7 33.1 34.7s32.9-15.5 32.9-34.7v-44.9h-66v44.9z"/><path d="M184.8 400.9c0 4.5 3.4 8.199 7.6 8.199 4.2 0 7.6-3.699 7.6-8.199v-10.5h-15.3v10.5h.1z" fill="none"/><path fill="#24408F" d="M184.8 366h15.3v10.5c0 4.5-3.4 8.1-7.6 8.1s-7.6-3.6-7.6-8.1v-10.5h-.1zm0 34.9c0 4.5 3.4 8.199 7.6 8.199 4.2 0 7.6-3.699 7.6-8.199v-10.5h-15.3v10.5h.1zm0 24.5c0 4.5 3.4 8.1 7.6 8.1 4.2 0 7.6-3.7 7.6-8.1v-10.5h-15.3v10.5h.1zm-19.8-24.5c0 4.5 3.4 8.199 7.7 8.199 4.2 0 7.6-3.699 7.6-8.199v-10.5h-15.3v10.5zm54.8-10.5h-15.3v10.5c0 4.5 3.4 8.199 7.6 8.199 4.2 0 7.6-3.699 7.6-8.199v-10.5h.1z"/><path fill="#fff" d="M192.4 375.4c-.8 0-1.4-.6-1.4-1.4s.6-1.4 1.4-1.4c.8 0 1.4.6 1.4 1.4s-.6 1.4-1.4 1.4m-3.6-4.7c.8 0 1.4-.6 1.4-1.4 0-.8-.6-1.4-1.4-1.4-.8 0-1.4.6-1.4 1.4 0 .8.6 1.4 1.4 1.4m7.2 0c.8 0 1.4-.6 1.4-1.4 0-.8-.6-1.4-1.4-1.4s-1.4.6-1.4 1.4c0 .8.6 1.4 1.4 1.4m-7.2 6.6c-.8 0-1.4.6-1.4 1.4 0 .8.6 1.4 1.4 1.4.8 0 1.4-.6 1.4-1.4 0-.8-.6-1.4-1.4-1.4m7.2 0c-.8 0-1.4.6-1.4 1.4 0 .8.6 1.4 1.4 1.4s1.4-.6 1.4-1.4c.1-.8-.6-1.4-1.4-1.4m-3.6 22.6c.8 0 1.4-.601 1.4-1.4s-.6-1.4-1.4-1.4c-.8 0-1.4.601-1.4 1.4 0 .7.6 1.4 1.4 1.4m-3.6-4.8c.8 0 1.4-.6 1.4-1.4 0-.8-.6-1.4-1.4-1.4-.8 0-1.4.6-1.4 1.4 0 .8.6 1.4 1.4 1.4m7.2 0c.8 0 1.4-.6 1.4-1.4 0-.8-.6-1.4-1.4-1.4s-1.4.6-1.4 1.4c0 .8.6 1.4 1.4 1.4m-7.2 6.6c-.8 0-1.4.6-1.4 1.399 0 .801.6 1.4 1.4 1.4.8 0 1.4-.6 1.4-1.4 0-.699-.6-1.399-1.4-1.399m7.2 0c-.8 0-1.4.6-1.4 1.399 0 .801.6 1.4 1.4 1.4s1.4-.6 1.4-1.4c.1-.699-.6-1.399-1.4-1.399m-3.6 22.6c.8 0 1.4-.6 1.4-1.399 0-.801-.6-1.4-1.4-1.4-.8 0-1.4.6-1.4 1.4 0 .699.6 1.399 1.4 1.399m-3.6-4.8c.8 0 1.4-.6 1.4-1.4 0-.8-.6-1.399-1.4-1.399-.8 0-1.4.6-1.4 1.399 0 .8.6 1.4 1.4 1.4m7.2 0c.8 0 1.4-.6 1.4-1.4 0-.8-.6-1.399-1.4-1.399s-1.4.6-1.4 1.399c0 .8.6 1.4 1.4 1.4m-7.2 6.7c-.8 0-1.4.6-1.4 1.399 0 .801.6 1.4 1.4 1.4.8 0 1.4-.6 1.4-1.4 0-.799-.6-1.399-1.4-1.399m7.2 0c-.8 0-1.4.6-1.4 1.399 0 .801.6 1.4 1.4 1.4s1.4-.6 1.4-1.4c.1-.799-.6-1.399-1.4-1.399m-23.3-26.3c.8 0 1.4-.601 1.4-1.4s-.6-1.4-1.4-1.4c-.8 0-1.4.601-1.4 1.4-.1.7.6 1.4 1.4 1.4m-3.7-4.8c.8 0 1.4-.6 1.4-1.4 0-.8-.6-1.4-1.4-1.4s-1.4.6-1.4 1.4c0 .8.6 1.4 1.4 1.4m7.3 0c.8 0 1.5-.6 1.5-1.4 0-.8-.7-1.4-1.5-1.4s-1.4.6-1.4 1.4c0 .8.6 1.4 1.4 1.4m-7.3 6.6c-.8 0-1.4.6-1.4 1.399 0 .801.7 1.4 1.4 1.4.8 0 1.4-.6 1.4-1.4 0-.699-.6-1.399-1.4-1.399m7.3 0c-.8 0-1.4.6-1.4 1.399 0 .801.6 1.4 1.4 1.4.8 0 1.5-.6 1.5-1.4-.1-.699-.7-1.399-1.5-1.399m35.9-1.8c.8 0 1.4-.601 1.4-1.4s-.6-1.4-1.4-1.4c-.8 0-1.4.601-1.4 1.4-.1.7.6 1.4 1.4 1.4m3.6-4.8c.8 0 1.5-.6 1.5-1.4 0-.8-.7-1.4-1.5-1.4s-1.4.6-1.4 1.4c0 .8.6 1.4 1.4 1.4m-7.2 0c.8 0 1.4-.6 1.4-1.4 0-.8-.6-1.4-1.4-1.4-.8 0-1.4.6-1.4 1.4-.1.8.6 1.4 1.4 1.4m7.2 6.6c-.8 0-1.4.6-1.4 1.399 0 .801.6 1.4 1.4 1.4.8 0 1.5-.6 1.5-1.4-.1-.699-.7-1.399-1.5-1.399m-7.2 0c-.8 0-1.4.6-1.4 1.399 0 .801.6 1.4 1.4 1.4.8 0 1.4-.6 1.4-1.4 0-.699-.7-1.399-1.4-1.399"/></svg>
