<svg baseProfile="tiny" xmlns="http://www.w3.org/2000/svg" viewBox="0 0 70 70"><circle fill="#fff" cx="35" cy="35" r="35"/><path fill="#fff" d="M11.901 57.097h46.196c-1.788 1.868-3.801 3.523-5.994 4.918h-34.207c-2.193-1.395-4.207-3.05-5.996-4.918zm-3.871-4.914h53.938c.992-1.556 1.854-3.2 2.575-4.92h-59.087c.718 1.72 1.58 3.364 2.574 4.92zm-4.936-14.752c.127 1.673.386 3.317.766 4.917h62.278c.38-1.6.633-3.244.762-4.917h-63.807zm63.031-9.834h-62.251c-.38 1.596-.645 3.234-.776 4.918h63.8c-.133-1.684-.39-3.326-.773-4.918zm-4.198-9.837h-53.859c-.996 1.554-1.864 3.197-2.588 4.918h59.037c-.725-1.721-1.589-3.365-2.59-4.918zm-9.921-9.833h-34.015c-2.207 1.393-4.232 3.046-6.032 4.917h46.08c-1.799-1.871-3.826-3.524-6.033-4.917z"/><path fill="#B12636" d="M17.897 62.015h34.207c-4.954 3.147-10.818 4.977-17.102 4.977-6.285 0-12.152-1.831-17.105-4.977zm-5.996-4.918h46.196c1.443-1.507 2.741-3.154 3.872-4.914h-53.938c1.129 1.761 2.428 3.408 3.871 4.914zm-6.444-9.834h59.087c.659-1.577 1.195-3.222 1.595-4.915h-62.278c.399 1.693.939 3.338 1.596 4.915zm61.543-12.275l-.007-.675-.016-.451-.005-.129-.002.003c-.014-.414-.041-.82-.071-1.221h-63.8c-.064.815-.096 1.641-.096 2.474h-.002l.002.012-.002.014h.002c0 .81.032 1.619.092 2.417h63.807c.029-.39.055-.776.068-1.165h.002l.005-.122.016-.456.007-.674v-.025zm-2.482-12.311h-59.037c-.663 1.581-1.202 3.225-1.606 4.919h62.251c-.404-1.698-.948-3.338-1.608-4.919zm-6.478-9.834h-46.08c-1.45 1.506-2.754 3.152-3.892 4.916h53.859c-1.133-1.764-2.438-3.41-3.888-4.916zm-23.038-9.835c-6.242 0-12.076 1.805-17.01 4.918h34.015c-4.931-3.113-10.766-4.918-17.005-4.918z"/><path fill="#3F3D71" d="M35.002 3.008c-6.242 0-12.076 1.805-17.01 4.918-2.207 1.393-4.232 3.046-6.032 4.917-1.45 1.506-2.754 3.152-3.892 4.916-.996 1.554-1.864 3.197-2.588 4.918-.663 1.581-1.202 3.225-1.606 4.919-.38 1.596-.645 3.234-.776 4.918-.064.815-.096 1.641-.096 2.474h-.002l.002.012-.002.014h.002c0 .81.032 1.619.092 2.417h31.908v-34.422z"/><path fill="#fff" d="M23.199 5.277l.633-.248.183.55h1.461c-.393.292-.792.576-1.179.87l.442 1.385c-.396-.274-.783-.566-1.173-.853l-1.197.853c.149-.463.302-.923.445-1.386-.286-.217-.58-.429-.869-.639l.524-.229h.63l.1-.302zm8.18.3l-1.457.002c.388.295.787.576 1.177.865l-.445 1.388 1.187-.847 1.181.849-.444-1.385c.388-.297.789-.58 1.184-.87l-1.471-.004c-.149-.461-.291-.921-.452-1.377l-.459 1.379zm-13.88 3.551c.386.296.783.575 1.175.862l-.437 1.387c.395-.271.78-.561 1.175-.842.403.275.79.571 1.185.854l-.441-1.393 1.177-.863-1.462-.005-.457-1.381c-.156.458-.301.918-.452 1.381-.489.005-.978.002-1.464 0zm9.742 0l-1.464.005 1.179.863-.443 1.393c.397-.283.784-.579 1.186-.849l1.179.844-.443-1.394c.394-.285.792-.566 1.179-.86l-1.464-.002c-.152-.464-.296-.924-.462-1.381-.147.46-.294.924-.45 1.381zm-5.593 3.555c.384.297.778.575 1.168.87l-.447 1.393 1.182-.86c.402.281.795.572 1.194.858l-.45-1.398c.39-.288.787-.565 1.168-.863l-1.447-.002c-.157-.459-.307-.925-.458-1.386l-.458 1.383-1.452.005zm-8.282 0l1.163.87-.437 1.382 1.179-.844 1.184.844-.444-1.383c.389-.29.781-.569 1.166-.863-.483-.01-.963-.01-1.447-.01-.158-.453-.303-.913-.456-1.372-.159.452-.304.914-.453 1.37l-1.456.007zm18.012-.005c-.482 0-.962 0-1.443.01l1.163.865c-.147.458-.303.918-.445 1.382l1.187-.844 1.181.844-.44-1.379c.381-.3.779-.575 1.166-.871l-1.457-.009c-.149-.456-.291-.918-.454-1.37l-.457 1.372zm-13.88 3.554l1.179.867c-.146.462-.302.918-.441 1.381.395-.271.781-.562 1.176-.841l1.182.85c-.14-.463-.294-.922-.443-1.385.392-.299.789-.578 1.182-.871l-1.461-.006c-.157-.455-.304-.918-.454-1.381-.159.456-.306.921-.453 1.381l-1.467.006zm9.742-.006l-1.464.006c.395.291.792.572 1.182.871-.148.46-.301.915-.443 1.376.399-.275.79-.563 1.182-.841.397.28.781.57 1.182.841l-.443-1.384c.394-.287.789-.572 1.179-.864l-1.464-.006c-.154-.457-.298-.92-.459-1.38-.149.462-.298.925-.452 1.38zm-17.291 2.259l1.183-.847 1.18.847-.44-1.386c.388-.289.785-.571 1.168-.867l-1.448-.002c-.163-.455-.303-.918-.461-1.378-.157.46-.299.923-.462 1.378h-1.45c.385.297.783.58 1.17.869l-.441 1.386zm11.693 1.301l1.177.868c-.15.463-.305.92-.449 1.388.394-.282.784-.569 1.172-.854.409.271.797.57 1.194.854-.141-.465-.294-.928-.442-1.39l1.169-.866-1.45-.002c-.162-.459-.304-.925-.456-1.387-.161.459-.305.926-.461 1.387l-1.455.002zm9.733-.002h-1.45c.383.293.777.572 1.17.856-.135.464-.293.927-.443 1.393.402-.275.79-.567 1.187-.849.392.282.78.574 1.179.849-.144-.457-.287-.912-.443-1.366.378-.312.782-.584 1.168-.883l-1.455-.005-.45-1.377-.464 1.382zm-25.567 2.249c.399-.275.787-.567 1.179-.852.397.285.785.577 1.182.854-.125-.452-.308-.888-.416-1.343.301-.374.783-.585 1.145-.908l-1.46-.005-.204-.644c-.475.83-.916 1.679-1.317 2.551l-.11.347zm7.557-2.249c.363.323.837.534 1.146.908-.112.455-.293.891-.417 1.343.397-.277.782-.569 1.179-.854.395.285.782.577 1.183.852-.148-.466-.303-.93-.443-1.393.392-.284.785-.563 1.171-.854-.482-.046-1.003.076-1.464-.059-.173-.427-.28-.884-.444-1.317-.164.451-.306.913-.451 1.369l-1.458.005zm-4.146 3.552c.385.297.784.574 1.173.864l-.441 1.385 1.18-.849 1.18.849-.442-1.385c.387-.29.787-.566 1.173-.864-.484-.044-1.006.078-1.469-.061-.165-.405-.263-.832-.413-1.242l-.543 1.287c-.464.037-.931.002-1.399.015zm8.278 0l1.179.866-.442 1.383 1.178-.849 1.182.845c-.143-.464-.294-.918-.443-1.38l1.182-.866-1.461-.004-.454-1.385c-.159.458-.304.921-.456 1.385l-1.464.004zm9.738-.004l-1.455.004 1.177.866-.443 1.382 1.182-.847 1.182.852-.443-1.387 1.177-.867-1.464-.003c-.152-.463-.294-.928-.454-1.387-.152.462-.301.927-.459 1.387zm-20.698 3.545l-1.458.013 1.173.861-.443 1.385 1.182-.845c.395.279.784.569 1.18.842-.142-.462-.303-.92-.436-1.39.39-.283.783-.564 1.166-.853l-1.453-.009-.459-1.381-.451 1.377zm6.828.013c.379.289.774.57 1.163.853-.132.47-.295.928-.437 1.39l1.179-.842 1.184.845-.443-1.385 1.171-.861-1.458-.013-.453-1.377-.456 1.381-1.451.009zm8.27-.008l1.184.876c-.154.462-.305.921-.447 1.385l1.173-.852c.406.271.796.569 1.195.852-.144-.463-.297-.923-.447-1.385.386-.302.789-.579 1.182-.876-.489 0-.975.007-1.464-.001l-.452-1.383c-.161.459-.305.92-.457 1.383-.489.008-.976.001-1.466.001zm9.745-.001l-1.455.008c.385.29.78.571 1.17.856-.138.47-.298.932-.443 1.398.399-.283.787-.576 1.187-.852.395.279.782.569 1.181.842-.146-.462-.304-.922-.44-1.393.393-.28.78-.56 1.166-.851l-1.457-.008c-.151-.463-.291-.924-.45-1.381l-.459 1.381zm-28.044 3.547c-.077.536-.144 1.077-.192 1.624l.886.64-.441-1.384c.385-.298.785-.58 1.175-.871l-1.428-.01zm5.882.01l1.174.865-.443 1.385 1.183-.85 1.182.85-.444-1.385 1.175-.865c-.491-.003-.977-.002-1.466-.014-.136-.424-.268-.852-.411-1.275-.28.366-.312.858-.483 1.275-.49.012-.979.011-1.466.014zm8.28 0c.389.291.792.573 1.179.871-.148.46-.302.919-.442 1.384l1.178-.855 1.182.85-.443-1.385 1.177-.867-1.457-.004-.453-1.382c-.162.458-.304.917-.453 1.379l-1.467.01zm8.284-.002l1.176.869-.445 1.386c.399-.283.787-.576 1.191-.853l1.175.855-.443-1.39 1.177-.867-1.464-.004c-.152-.465-.296-.925-.452-1.384l-.457 1.384-1.458.004zm-19.252 3.55l-1.453.004 1.175.863-.443 1.383 1.182-.845c.393.278.781.57 1.178.841l-.436-1.38 1.177-.863h-1.455l-.466-1.388c-.154.462-.298.922-.459 1.384zm6.828.004l1.175.863-.436 1.38c.397-.271.78-.564 1.175-.841l1.182.845-.442-1.383 1.174-.863-1.452-.004c-.161-.463-.305-.922-.46-1.384l-.461 1.388h-1.455zm8.278 0l1.177.854c-.138.467-.289.927-.441 1.392.396-.273.785-.558 1.17-.845.409.272.797.57 1.194.853-.141-.462-.292-.916-.448-1.377.384-.308.792-.584 1.189-.875l-1.466-.006-.452-1.387c-.161.461-.305.925-.457 1.387l-1.466.004zm9.742-.004l-1.455.006 1.175.861c-.142.462-.296.923-.445 1.386l1.189-.848c.39.278.776.57 1.177.841l-.443-1.38 1.173-.863c-.482-.004-.963-.004-1.447.002-.167-.461-.304-.929-.465-1.393l-.459 1.387z"/></svg>