<?xml version="1.0" encoding="utf-8"?>
<!-- Generator: Adobe Illustrator 16.0.0, SVG Export Plug-In . SVG Version: 6.00 Build 0)  -->
<!DOCTYPE svg PUBLIC "-//W3C//DTD SVG 1.1//EN" "http://www.w3.org/Graphics/SVG/1.1/DTD/svg11.dtd">
<svg version="1.1" id="Layer_1" xmlns="http://www.w3.org/2000/svg" xmlns:xlink="http://www.w3.org/1999/xlink" x="0px" y="0px"
	 width="100px" height="100px" viewBox="0 0 100 100" enable-background="new 0 0 100 100" xml:space="preserve">
<path fill="#566FC9" d="M63.999,64.943v-4.381c2.39-1.386,3.999-3.963,3.999-6.922c0-4.417-3.581-7.999-7.999-7.999
	c-1.601,0-3.083,0.48-4.333,1.291c-1.23-5.317-5.974-9.291-11.665-9.291c-6.627,0-11.998,5.373-11.998,12
	c0,3.549,1.55,6.729,4,8.924v4.916c-4.777-2.769-8-7.922-8-13.84c0-8.836,7.163-15.999,15.998-15.999
	c6.004,0,11.229,3.312,13.965,8.204c0.664-0.113,1.337-0.205,2.033-0.205c6.627,0,11.999,5.373,11.999,11.999
	C71.998,58.863,68.654,63.293,63.999,64.943z M42.001,57.641c1.105,0,2,0.896,2,2c0,1.105-0.895,2-2,2c-1.104,0-1.999-0.895-1.999-2
	C40.002,58.537,40.897,57.641,42.001,57.641z M42.001,65.641c1.105,0,2,0.896,2,2s-0.895,1.998-2,1.998
	c-1.104,0-1.999-0.895-1.999-1.998C40.002,66.535,40.897,65.641,42.001,65.641z M50.001,61.641c1.104,0,2,0.896,2,2s-0.896,2-2,2
	c-1.105,0-2-0.896-2-2C48.001,62.535,48.896,61.641,50.001,61.641z M50.001,69.639c1.104,0,2,0.896,2,2c0,1.105-0.896,2-2,2
	c-1.105,0-2-0.895-2-2C48.001,70.535,48.896,69.639,50.001,69.639z M57.999,57.641c1.104,0,2,0.896,2,2c0,1.105-0.896,2-2,2
	S56,60.746,56,59.641C56,58.537,56.896,57.641,57.999,57.641z M57.999,65.641c1.104,0,2,0.896,2,2s-0.896,1.998-2,1.998
	S56,68.744,56,67.641C56,66.535,56.896,65.641,57.999,65.641z"/>
</svg>
