<?xml version="1.0" encoding="utf-8"?>
<!-- Generator: Adobe Illustrator 16.0.0, SVG Export Plug-In . SVG Version: 6.00 Build 0)  -->
<!DOCTYPE svg PUBLIC "-//W3C//DTD SVG 1.1//EN" "http://www.w3.org/Graphics/SVG/1.1/DTD/svg11.dtd">
<svg version="1.1" id="Layer_1" xmlns="http://www.w3.org/2000/svg" xmlns:xlink="http://www.w3.org/1999/xlink" x="0px" y="0px"
	 width="100px" height="100px" viewBox="0 0 100 100" enable-background="new 0 0 100 100" xml:space="preserve">
<path fill="#566FC9" d="M59.999,65.641c-0.28,0-0.649,0-1.062,0l3.584-4.412c3.182-1.057,5.478-4.053,5.478-7.588
	c0-4.417-3.581-7.998-7.999-7.998c-1.602,0-3.083,0.48-4.333,1.29c-1.231-5.316-5.974-9.29-11.665-9.29
	c-6.626,0-11.998,5.372-11.998,12c0,5.446,3.632,10.039,8.604,11.503l-1.349,3.777c-6.52-2.021-11.255-8.098-11.255-15.282
	c0-8.835,7.163-15.999,15.998-15.999c6.004,0,11.229,3.312,13.965,8.204c0.664-0.114,1.338-0.205,2.033-0.205
	c6.627,0,11.999,5.371,11.999,11.999C71.999,60.268,66.626,65.641,59.999,65.641z M48.001,51.641h9.998l-5.999,10h6.999
	L46.001,77.639l3.6-11.998h-6.6L48.001,51.641z"/>
</svg>
