<?xml version="1.0" encoding="utf-8"?>
<!-- Generator: Adobe Illustrator 16.0.0, SVG Export Plug-In . SVG Version: 6.00 Build 0)  -->
<!DOCTYPE svg PUBLIC "-//W3C//DTD SVG 1.1//EN" "http://www.w3.org/Graphics/SVG/1.1/DTD/svg11.dtd">
<svg version="1.1" id="Layer_1" xmlns="http://www.w3.org/2000/svg" xmlns:xlink="http://www.w3.org/1999/xlink" x="0px" y="0px"
	 width="100px" height="100px" viewBox="0 0 100 100" enable-background="new 0 0 100 100" xml:space="preserve">
<path fill="#566FC9" d="M69.818,46.758L69.818,46.758c1.005,1.431,1.699,3.09,2.004,4.883h-0.004c0.108,0.652,0.18,1.317,0.18,2
	c0,6.627-5.372,12-11.999,12c-0.278,0-0.647,0-1.062,0l3.584-4.412c3.181-1.058,5.478-4.052,5.478-7.588c0-0.69-0.099-1.358-0.263-2
	l0,0c-0.891-3.447-4.012-5.999-7.737-5.999c-1.601,0-3.082,0.481-4.333,1.291c-1.23-5.316-5.974-9.29-11.665-9.29
	c-6.626,0-11.998,5.372-11.998,11.999c0,0.683,0.07,1.348,0.18,1.999h-0.014c0.764,4.549,4.088,8.224,8.438,9.506l-1.35,3.777
	c-5.903-1.831-10.331-6.99-11.116-13.283l0,0c-0.082-0.656-0.139-1.32-0.139-1.999c0-8.836,7.163-15.998,15.998-15.998
	c2.003,0,3.914,0.375,5.68,1.048l0,0c1.634-4.683,6.079-8.047,11.318-8.047c0.756,0,1.492,0.078,2.208,0.211
	c-0.132,0.576-0.208,1.173-0.208,1.788c0,4.418,3.582,7.999,7.999,7.999c0.616,0,1.212-0.076,1.788-0.207
	c0.134,0.716,0.212,1.452,0.212,2.207C72.998,41.776,71.786,44.621,69.818,46.758z M59.212,30.852
	c-2.899,0.663-5.175,2.909-5.924,5.774l0,0c1.916,1.372,3.521,3.153,4.678,5.222c0.664-0.114,1.339-0.205,2.033-0.205
	c2.619,0,5.033,0.848,7.006,2.271l0,0c0.858-0.979,1.485-2.168,1.785-3.482C63.938,39.526,60.115,35.706,59.212,30.852z
	 M48.001,51.641H58l-5.999,10H59L46.001,77.639l3.6-11.998h-6.599L48.001,51.641z"/>
</svg>
