<?xml version="1.0" encoding="utf-8"?>
<!-- Generator: Adobe Illustrator 16.0.0, SVG Export Plug-In . SVG Version: 6.00 Build 0)  -->
<!DOCTYPE svg PUBLIC "-//W3C//DTD SVG 1.1//EN" "http://www.w3.org/Graphics/SVG/1.1/DTD/svg11.dtd">
<svg version="1.1" id="Layer_1" xmlns="http://www.w3.org/2000/svg" xmlns:xlink="http://www.w3.org/1999/xlink" x="0px" y="0px"
	 width="100px" height="100px" viewBox="0 0 100 100" enable-background="new 0 0 100 100" xml:space="preserve">
<g>
	<g>
		<path fill="#566FC9" d="M59.943,41.642c-0.696,0-1.369,0.092-2.033,0.205c-2.736-4.892-7.961-8.203-13.965-8.203
			c-8.835,0-15.998,7.162-15.998,15.997c0,5.992,3.3,11.207,8.177,13.947c0.276-1.262,0.892-2.465,1.873-3.445l0.057-0.057
			c-3.644-2.061-6.106-5.963-6.106-10.445c0-6.626,5.372-11.998,11.998-11.998c5.691,0,10.433,3.974,11.666,9.29
			c1.25-0.81,2.732-1.291,4.332-1.291c4.418,0,8,3.581,8,7.999c0,3.443-2.182,6.371-5.235,7.498
			c0.788,1.146,1.194,2.471,1.222,3.807c4.666-1.645,8.014-6.077,8.014-11.305C71.941,47.014,66.57,41.642,59.943,41.642z
			 M42.945,60.85l-2.121,2.121c-1.171,1.172-1.171,3.07,0,4.242c1.172,1.172,3.071,1.172,4.242,0c1.172-1.172,1.172-3.07,0-4.242
			L42.945,60.85z M49.945,68.848l-2.121,2.121c-1.172,1.172-1.172,3.072,0,4.242c1.171,1.172,3.07,1.172,4.24,0
			c1.172-1.17,1.172-3.07,0-4.242L49.945,68.848z M56.943,60.85l-2.12,2.121c-1.173,1.172-1.173,3.07,0,4.242
			c1.171,1.172,3.069,1.172,4.241,0s1.172-3.07,0-4.242L56.943,60.85z"/>
	</g>
</g>
</svg>
